<svg width="213" height="44" viewBox="0 0 213 44" fill="none" xmlns="http://www.w3.org/2000/svg">
<path d="M2.66 21C2.45467 21 2.28667 20.9347 2.156 20.804C2.02533 20.6547 1.96 20.4867 1.96 20.3V2.1C1.96 1.89467 2.02533 1.72667 2.156 1.596C2.28667 1.46533 2.45467 1.4 2.66 1.4H9.94C11.7693 1.4 13.328 1.69867 14.616 2.296C15.904 2.87467 16.8933 3.73333 17.584 4.872C18.2747 5.992 18.648 7.38267 18.704 9.044C18.7227 9.86533 18.732 10.584 18.732 11.2C18.732 11.816 18.7227 12.5253 18.704 13.328C18.6293 15.064 18.256 16.5013 17.584 17.64C16.9307 18.7787 15.9693 19.628 14.7 20.188C13.4493 20.7293 11.9093 21 10.08 21H2.66ZM7 16.968H9.94C10.7427 16.968 11.4053 16.8467 11.928 16.604C12.4693 16.3427 12.8707 15.9413 13.132 15.4C13.412 14.8587 13.5613 14.1493 13.58 13.272C13.6173 12.7307 13.636 12.2453 13.636 11.816C13.6547 11.3867 13.6547 10.9573 13.636 10.528C13.636 10.0987 13.6173 9.62267 13.58 9.1C13.5427 7.83067 13.2067 6.90667 12.572 6.328C11.956 5.73067 11.032 5.432 9.8 5.432H7V16.968ZM28.2816 21.28C26.079 21.28 24.3243 20.6827 23.0176 19.488C21.711 18.2933 21.0296 16.52 20.9736 14.168C20.9736 14.0373 20.9736 13.8693 20.9736 13.664C20.9736 13.4587 20.9736 13.3 20.9736 13.188C21.0296 11.7133 21.3563 10.4533 21.9536 9.408C22.5696 8.344 23.4096 7.54133 24.4736 7C25.5563 6.44 26.8163 6.16 28.2536 6.16C29.8963 6.16 31.2496 6.48667 32.3136 7.14C33.3963 7.79333 34.2083 8.68 34.7496 9.8C35.291 10.92 35.5616 12.1987 35.5616 13.636V14.308C35.5616 14.5133 35.4963 14.6813 35.3656 14.812C35.235 14.9427 35.067 15.008 34.8616 15.008H25.9016C25.9016 15.0267 25.9016 15.0547 25.9016 15.092C25.9016 15.1293 25.9016 15.1667 25.9016 15.204C25.9203 15.7453 26.0136 16.24 26.1816 16.688C26.3683 17.136 26.6296 17.4907 26.9656 17.752C27.3203 18.0133 27.7496 18.144 28.2536 18.144C28.627 18.144 28.935 18.088 29.1776 17.976C29.439 17.8453 29.6536 17.7053 29.8216 17.556C29.9896 17.388 30.1203 17.248 30.2136 17.136C30.3816 16.9307 30.5123 16.8093 30.6056 16.772C30.7176 16.716 30.8856 16.688 31.1096 16.688H34.5816C34.7683 16.688 34.9176 16.744 35.0296 16.856C35.1603 16.968 35.2163 17.1173 35.1976 17.304C35.179 17.6213 35.0203 18.004 34.7216 18.452C34.423 18.9 33.9843 19.348 33.4056 19.796C32.8456 20.2253 32.1363 20.58 31.2776 20.86C30.419 21.14 29.4203 21.28 28.2816 21.28ZM25.9016 12.236H30.6336V12.18C30.6336 11.564 30.5403 11.0413 30.3536 10.612C30.1856 10.164 29.915 9.81867 29.5416 9.576C29.187 9.33333 28.7576 9.212 28.2536 9.212C27.7683 9.212 27.3483 9.33333 26.9936 9.576C26.639 9.81867 26.3683 10.164 26.1816 10.612C25.995 11.0413 25.9016 11.564 25.9016 12.18V12.236ZM46.9573 21.28C45.9306 21.28 45.0626 21.1027 44.3533 20.748C43.644 20.3933 43.0653 19.9453 42.6173 19.404V20.3C42.6173 20.4867 42.5426 20.6547 42.3933 20.804C42.2626 20.9347 42.104 21 41.9173 21H38.7533C38.548 21 38.38 20.9347 38.2493 20.804C38.1186 20.6547 38.0533 20.4867 38.0533 20.3V1.82C38.0533 1.61467 38.1186 1.44667 38.2493 1.316C38.38 1.18533 38.548 1.12 38.7533 1.12H42.1693C42.3746 1.12 42.5426 1.18533 42.6733 1.316C42.804 1.44667 42.8693 1.61467 42.8693 1.82V7.812C43.336 7.32667 43.9053 6.93467 44.5773 6.636C45.2493 6.31867 46.0426 6.16 46.9573 6.16C47.8906 6.16 48.712 6.31867 49.4213 6.636C50.1493 6.93467 50.7653 7.37333 51.2693 7.952C51.7733 8.512 52.1653 9.20267 52.4453 10.024C52.7253 10.8267 52.884 11.7227 52.9213 12.712C52.94 13.0853 52.9493 13.4213 52.9493 13.72C52.9493 14 52.94 14.3267 52.9213 14.7C52.884 15.7453 52.7253 16.6787 52.4453 17.5C52.1653 18.3027 51.764 18.9933 51.2413 19.572C50.7373 20.132 50.1306 20.5613 49.4213 20.86C48.712 21.14 47.8906 21.28 46.9573 21.28ZM45.4453 17.528C46.08 17.528 46.5746 17.3973 46.9293 17.136C47.284 16.8747 47.536 16.52 47.6853 16.072C47.8533 15.624 47.956 15.1293 47.9933 14.588C48.0306 14.0093 48.0306 13.4307 47.9933 12.852C47.956 12.3107 47.8533 11.816 47.6853 11.368C47.536 10.92 47.284 10.5653 46.9293 10.304C46.5746 10.0427 46.08 9.912 45.4453 9.912C44.8666 9.912 44.3906 10.0427 44.0173 10.304C43.644 10.5467 43.364 10.8733 43.1773 11.284C42.9906 11.676 42.888 12.1053 42.8693 12.572C42.8506 12.9267 42.8413 13.272 42.8413 13.608C42.8413 13.944 42.8506 14.2987 42.8693 14.672C42.9066 15.176 43.0093 15.6427 43.1773 16.072C43.3453 16.5013 43.616 16.856 43.9893 17.136C44.3626 17.3973 44.848 17.528 45.4453 17.528ZM62.95 21C61.7553 21 60.7193 20.8133 59.842 20.44C58.9833 20.048 58.3207 19.4507 57.854 18.648C57.3873 17.8267 57.154 16.772 57.154 15.484V10.108H54.97C54.7647 10.108 54.5873 10.0427 54.438 9.912C54.3073 9.78133 54.242 9.61333 54.242 9.408V7.14C54.242 6.93467 54.3073 6.76667 54.438 6.636C54.5873 6.50533 54.7647 6.44 54.97 6.44H57.154V1.82C57.154 1.61467 57.2193 1.44667 57.35 1.316C57.4993 1.18533 57.6673 1.12 57.854 1.12H61.102C61.3073 1.12 61.4753 1.18533 61.606 1.316C61.7367 1.44667 61.802 1.61467 61.802 1.82V6.44H65.302C65.5073 6.44 65.6753 6.50533 65.806 6.636C65.9553 6.76667 66.03 6.93467 66.03 7.14V9.408C66.03 9.61333 65.9553 9.78133 65.806 9.912C65.6753 10.0427 65.5073 10.108 65.302 10.108H61.802V15.092C61.802 15.7267 61.9233 16.2307 62.166 16.604C62.4087 16.9773 62.8193 17.164 63.398 17.164H65.554C65.7593 17.164 65.9273 17.2293 66.058 17.36C66.1887 17.4907 66.254 17.6587 66.254 17.864V20.3C66.254 20.4867 66.1887 20.6547 66.058 20.804C65.9273 20.9347 65.7593 21 65.554 21H62.95ZM82.6106 21.28C80.8559 21.28 79.3439 20.9907 78.0746 20.412C76.8053 19.8333 75.8159 18.984 75.1066 17.864C74.4159 16.744 74.0333 15.3533 73.9586 13.692C73.9399 12.9267 73.9306 12.1053 73.9306 11.228C73.9306 10.3507 73.9399 9.51067 73.9586 8.708C74.0333 7.084 74.4253 5.70267 75.1346 4.564C75.8439 3.42533 76.8333 2.56667 78.1026 1.988C79.3719 1.40933 80.8746 1.12 82.6106 1.12C83.8426 1.12 84.9813 1.27867 86.0266 1.596C87.0719 1.89467 87.9866 2.34267 88.7706 2.94C89.5546 3.51867 90.1613 4.228 90.5906 5.068C91.0386 5.88933 91.2719 6.82267 91.2906 7.868C91.3093 8.036 91.2533 8.176 91.1226 8.288C91.0106 8.4 90.8706 8.456 90.7026 8.456H86.9226C86.6799 8.456 86.4933 8.40933 86.3626 8.316C86.2319 8.204 86.1199 8.008 86.0266 7.728C85.7653 6.73867 85.3359 6.06667 84.7386 5.712C84.1599 5.33867 83.4413 5.152 82.5826 5.152C81.5559 5.152 80.7439 5.44133 80.1466 6.02C79.5493 6.58 79.2226 7.52267 79.1666 8.848C79.1106 10.3787 79.1106 11.9467 79.1666 13.552C79.2226 14.8773 79.5493 15.8293 80.1466 16.408C80.7439 16.968 81.5559 17.248 82.5826 17.248C83.4413 17.248 84.1693 17.0613 84.7666 16.688C85.3639 16.3147 85.7839 15.6427 86.0266 14.672C86.1013 14.392 86.2039 14.2053 86.3346 14.112C86.4839 14 86.6799 13.944 86.9226 13.944H90.7026C90.8706 13.944 91.0106 14 91.1226 14.112C91.2533 14.224 91.3093 14.364 91.2906 14.532C91.2719 15.5773 91.0386 16.52 90.5906 17.36C90.1613 18.1813 89.5546 18.8907 88.7706 19.488C87.9866 20.0667 87.0719 20.5147 86.0266 20.832C84.9813 21.1307 83.8426 21.28 82.6106 21.28ZM100.681 21.28C99.1134 21.28 97.7881 21.028 96.7054 20.524C95.6414 20.02 94.8201 19.3013 94.2414 18.368C93.6814 17.416 93.3641 16.2867 93.2894 14.98C93.2707 14.6067 93.2614 14.1867 93.2614 13.72C93.2614 13.2347 93.2707 12.8147 93.2894 12.46C93.3641 11.1347 93.7001 10.0053 94.2974 9.072C94.8947 8.13867 95.7254 7.42 96.7894 6.916C97.8721 6.412 99.1694 6.16 100.681 6.16C102.212 6.16 103.509 6.412 104.573 6.916C105.656 7.42 106.496 8.13867 107.093 9.072C107.691 10.0053 108.027 11.1347 108.101 12.46C108.12 12.8147 108.129 13.2347 108.129 13.72C108.129 14.1867 108.12 14.6067 108.101 14.98C108.027 16.2867 107.7 17.416 107.121 18.368C106.561 19.3013 105.74 20.02 104.657 20.524C103.593 21.028 102.268 21.28 100.681 21.28ZM100.681 17.864C101.521 17.864 102.128 17.612 102.501 17.108C102.893 16.604 103.117 15.848 103.173 14.84C103.192 14.56 103.201 14.1867 103.201 13.72C103.201 13.2533 103.192 12.88 103.173 12.6C103.117 11.6107 102.893 10.864 102.501 10.36C102.128 9.83733 101.521 9.576 100.681 9.576C99.8787 9.576 99.2721 9.83733 98.8614 10.36C98.4694 10.864 98.2547 11.6107 98.2174 12.6C98.1987 12.88 98.1894 13.2533 98.1894 13.72C98.1894 14.1867 98.1987 14.56 98.2174 14.84C98.2547 15.848 98.4694 16.604 98.8614 17.108C99.2721 17.612 99.8787 17.864 100.681 17.864ZM111.477 21C111.272 21 111.104 20.9347 110.973 20.804C110.843 20.6547 110.777 20.4867 110.777 20.3V1.82C110.777 1.61467 110.843 1.44667 110.973 1.316C111.104 1.18533 111.272 1.12 111.477 1.12H114.781C114.987 1.12 115.155 1.18533 115.285 1.316C115.416 1.44667 115.481 1.61467 115.481 1.82V20.3C115.481 20.4867 115.416 20.6547 115.285 20.804C115.155 20.9347 114.987 21 114.781 21H111.477ZM119.356 21C119.15 21 118.982 20.9347 118.852 20.804C118.721 20.6547 118.656 20.4867 118.656 20.3V1.82C118.656 1.61467 118.721 1.44667 118.852 1.316C118.982 1.18533 119.15 1.12 119.356 1.12H122.66C122.865 1.12 123.033 1.18533 123.164 1.316C123.294 1.44667 123.36 1.61467 123.36 1.82V20.3C123.36 20.4867 123.294 20.6547 123.164 20.804C123.033 20.9347 122.865 21 122.66 21H119.356ZM133.254 21.28C131.051 21.28 129.297 20.6827 127.99 19.488C126.683 18.2933 126.002 16.52 125.946 14.168C125.946 14.0373 125.946 13.8693 125.946 13.664C125.946 13.4587 125.946 13.3 125.946 13.188C126.002 11.7133 126.329 10.4533 126.926 9.408C127.542 8.344 128.382 7.54133 129.446 7C130.529 6.44 131.789 6.16 133.226 6.16C134.869 6.16 136.222 6.48667 137.286 7.14C138.369 7.79333 139.181 8.68 139.722 9.8C140.263 10.92 140.534 12.1987 140.534 13.636V14.308C140.534 14.5133 140.469 14.6813 140.338 14.812C140.207 14.9427 140.039 15.008 139.834 15.008H130.874C130.874 15.0267 130.874 15.0547 130.874 15.092C130.874 15.1293 130.874 15.1667 130.874 15.204C130.893 15.7453 130.986 16.24 131.154 16.688C131.341 17.136 131.602 17.4907 131.938 17.752C132.293 18.0133 132.722 18.144 133.226 18.144C133.599 18.144 133.907 18.088 134.15 17.976C134.411 17.8453 134.626 17.7053 134.794 17.556C134.962 17.388 135.093 17.248 135.186 17.136C135.354 16.9307 135.485 16.8093 135.578 16.772C135.69 16.716 135.858 16.688 136.082 16.688H139.554C139.741 16.688 139.89 16.744 140.002 16.856C140.133 16.968 140.189 17.1173 140.17 17.304C140.151 17.6213 139.993 18.004 139.694 18.452C139.395 18.9 138.957 19.348 138.378 19.796C137.818 20.2253 137.109 20.58 136.25 20.86C135.391 21.14 134.393 21.28 133.254 21.28ZM130.874 12.236H135.606V12.18C135.606 11.564 135.513 11.0413 135.326 10.612C135.158 10.164 134.887 9.81867 134.514 9.576C134.159 9.33333 133.73 9.212 133.226 9.212C132.741 9.212 132.321 9.33333 131.966 9.576C131.611 9.81867 131.341 10.164 131.154 10.612C130.967 11.0413 130.874 11.564 130.874 12.18V12.236ZM149.718 21.28C148.336 21.28 147.114 21.028 146.05 20.524C144.986 20.02 144.136 19.292 143.502 18.34C142.886 17.3693 142.55 16.212 142.494 14.868C142.475 14.5693 142.466 14.196 142.466 13.748C142.466 13.2813 142.475 12.8987 142.494 12.6C142.55 11.2373 142.886 10.08 143.502 9.128C144.118 8.15733 144.958 7.42 146.022 6.916C147.104 6.412 148.336 6.16 149.718 6.16C151.006 6.16 152.107 6.34667 153.022 6.72C153.955 7.07467 154.702 7.52267 155.262 8.064C155.84 8.60533 156.27 9.16533 156.55 9.744C156.848 10.304 157.007 10.7987 157.026 11.228C157.044 11.4147 156.979 11.5827 156.83 11.732C156.68 11.8627 156.512 11.928 156.326 11.928H152.77C152.564 11.928 152.406 11.8813 152.294 11.788C152.182 11.6947 152.079 11.5547 151.986 11.368C151.762 10.7893 151.472 10.3787 151.118 10.136C150.782 9.89333 150.343 9.772 149.802 9.772C149.055 9.772 148.476 10.0147 148.066 10.5C147.674 10.9853 147.459 11.732 147.422 12.74C147.403 13.4867 147.403 14.1493 147.422 14.728C147.478 15.7547 147.702 16.5013 148.094 16.968C148.486 17.4347 149.055 17.668 149.802 17.668C150.38 17.668 150.838 17.5467 151.174 17.304C151.51 17.0427 151.78 16.632 151.986 16.072C152.079 15.8853 152.182 15.7453 152.294 15.652C152.406 15.5587 152.564 15.512 152.77 15.512H156.326C156.512 15.512 156.68 15.5773 156.83 15.708C156.979 15.8387 157.044 16.0067 157.026 16.212C157.007 16.5107 156.914 16.8747 156.746 17.304C156.578 17.7333 156.316 18.1813 155.962 18.648C155.607 19.1147 155.14 19.544 154.562 19.936C154.002 20.328 153.32 20.6547 152.518 20.916C151.715 21.1587 150.782 21.28 149.718 21.28ZM166.856 21C165.661 21 164.625 20.8133 163.748 20.44C162.889 20.048 162.227 19.4507 161.76 18.648C161.293 17.8267 161.06 16.772 161.06 15.484V10.108H158.876C158.671 10.108 158.493 10.0427 158.344 9.912C158.213 9.78133 158.148 9.61333 158.148 9.408V7.14C158.148 6.93467 158.213 6.76667 158.344 6.636C158.493 6.50533 158.671 6.44 158.876 6.44H161.06V1.82C161.06 1.61467 161.125 1.44667 161.256 1.316C161.405 1.18533 161.573 1.12 161.76 1.12H165.008C165.213 1.12 165.381 1.18533 165.512 1.316C165.643 1.44667 165.708 1.61467 165.708 1.82V6.44H169.208C169.413 6.44 169.581 6.50533 169.712 6.636C169.861 6.76667 169.936 6.93467 169.936 7.14V9.408C169.936 9.61333 169.861 9.78133 169.712 9.912C169.581 10.0427 169.413 10.108 169.208 10.108H165.708V15.092C165.708 15.7267 165.829 16.2307 166.072 16.604C166.315 16.9773 166.725 17.164 167.304 17.164H169.46C169.665 17.164 169.833 17.2293 169.964 17.36C170.095 17.4907 170.16 17.6587 170.16 17.864V20.3C170.16 20.4867 170.095 20.6547 169.964 20.804C169.833 20.9347 169.665 21 169.46 21H166.856ZM173.045 21C172.84 21 172.672 20.9347 172.541 20.804C172.41 20.6547 172.345 20.4867 172.345 20.3V7.14C172.345 6.93467 172.41 6.76667 172.541 6.636C172.672 6.50533 172.84 6.44 173.045 6.44H176.349C176.554 6.44 176.722 6.50533 176.853 6.636C176.984 6.76667 177.049 6.93467 177.049 7.14V20.3C177.049 20.4867 176.984 20.6547 176.853 20.804C176.722 20.9347 176.554 21 176.349 21H173.045ZM173.017 4.34C172.812 4.34 172.644 4.27467 172.513 4.144C172.382 4.01333 172.317 3.84533 172.317 3.64V1.12C172.317 0.933332 172.382 0.774666 172.513 0.643998C172.644 0.494666 172.812 0.42 173.017 0.42H176.377C176.564 0.42 176.722 0.494666 176.853 0.643998C177.002 0.774666 177.077 0.933332 177.077 1.12V3.64C177.077 3.84533 177.002 4.01333 176.853 4.144C176.722 4.27467 176.564 4.34 176.377 4.34H173.017ZM187.111 21.28C185.543 21.28 184.218 21.028 183.135 20.524C182.071 20.02 181.25 19.3013 180.671 18.368C180.111 17.416 179.794 16.2867 179.719 14.98C179.701 14.6067 179.691 14.1867 179.691 13.72C179.691 13.2347 179.701 12.8147 179.719 12.46C179.794 11.1347 180.13 10.0053 180.727 9.072C181.325 8.13867 182.155 7.42 183.219 6.916C184.302 6.412 185.599 6.16 187.111 6.16C188.642 6.16 189.939 6.412 191.003 6.916C192.086 7.42 192.926 8.13867 193.523 9.072C194.121 10.0053 194.457 11.1347 194.531 12.46C194.55 12.8147 194.559 13.2347 194.559 13.72C194.559 14.1867 194.55 14.6067 194.531 14.98C194.457 16.2867 194.13 17.416 193.551 18.368C192.991 19.3013 192.17 20.02 191.087 20.524C190.023 21.028 188.698 21.28 187.111 21.28ZM187.111 17.864C187.951 17.864 188.558 17.612 188.931 17.108C189.323 16.604 189.547 15.848 189.603 14.84C189.622 14.56 189.631 14.1867 189.631 13.72C189.631 13.2533 189.622 12.88 189.603 12.6C189.547 11.6107 189.323 10.864 188.931 10.36C188.558 9.83733 187.951 9.576 187.111 9.576C186.309 9.576 185.702 9.83733 185.291 10.36C184.899 10.864 184.685 11.6107 184.647 12.6C184.629 12.88 184.619 13.2533 184.619 13.72C184.619 14.1867 184.629 14.56 184.647 14.84C184.685 15.848 184.899 16.604 185.291 17.108C185.702 17.612 186.309 17.864 187.111 17.864ZM197.907 21C197.702 21 197.534 20.9347 197.403 20.804C197.273 20.6547 197.207 20.4867 197.207 20.3V7.14C197.207 6.93467 197.273 6.76667 197.403 6.636C197.534 6.50533 197.702 6.44 197.907 6.44H201.127C201.333 6.44 201.501 6.50533 201.631 6.636C201.781 6.76667 201.855 6.93467 201.855 7.14V8.204C202.322 7.62533 202.947 7.14 203.731 6.748C204.515 6.356 205.439 6.16 206.503 6.16C207.586 6.16 208.538 6.40267 209.359 6.888C210.199 7.37333 210.853 8.08267 211.319 9.016C211.805 9.94933 212.047 11.1067 212.047 12.488V20.3C212.047 20.4867 211.982 20.6547 211.851 20.804C211.721 20.9347 211.553 21 211.347 21H207.819C207.633 21 207.465 20.9347 207.315 20.804C207.185 20.6547 207.119 20.4867 207.119 20.3V12.656C207.119 11.7787 206.905 11.1067 206.475 10.64C206.065 10.1547 205.449 9.912 204.627 9.912C203.862 9.912 203.246 10.1547 202.779 10.64C202.331 11.1067 202.107 11.7787 202.107 12.656V20.3C202.107 20.4867 202.033 20.6547 201.883 20.804C201.753 20.9347 201.594 21 201.407 21H197.907ZM0.972 43C0.852 43 0.762 42.964 0.702 42.892C0.642 42.82 0.624 42.724 0.648 42.604L3.15 30.814C3.174 30.682 3.228 30.58 3.312 30.508C3.408 30.436 3.516 30.4 3.636 30.4H10.656C10.788 30.4 10.878 30.436 10.926 30.508C10.986 30.58 11.004 30.682 10.98 30.814L10.926 31.084C10.902 31.204 10.848 31.3 10.764 31.372C10.68 31.444 10.572 31.48 10.44 31.48H4.158L3.168 36.07H9.054C9.186 36.07 9.276 36.106 9.324 36.178C9.384 36.25 9.402 36.352 9.378 36.484L9.324 36.754C9.3 36.874 9.246 36.97 9.162 37.042C9.078 37.114 8.97 37.15 8.838 37.15H2.952L1.926 41.92H8.352C8.484 41.92 8.574 41.956 8.622 42.028C8.682 42.1 8.7 42.202 8.676 42.334L8.622 42.604C8.598 42.724 8.544 42.82 8.46 42.892C8.376 42.964 8.268 43 8.136 43H0.972ZM32.9548 43C32.8108 43 32.7028 42.934 32.6308 42.802C32.5588 42.658 32.5768 42.526 32.6848 42.406L38.1748 36.52L35.3668 30.958C35.2948 30.826 35.2948 30.7 35.3668 30.58C35.4388 30.46 35.5408 30.4 35.6728 30.4H35.9608C36.1528 30.4 36.2788 30.43 36.3388 30.49C36.3988 30.55 36.4408 30.61 36.4648 30.67L39.0208 35.71L43.6288 30.67C43.6888 30.61 43.7548 30.55 43.8268 30.49C43.8988 30.43 44.0368 30.4 44.2408 30.4H44.5468C44.6908 30.4 44.7988 30.466 44.8708 30.598C44.9428 30.73 44.9248 30.862 44.8168 30.994L39.5428 36.754L42.4768 42.478C42.5368 42.598 42.5308 42.718 42.4588 42.838C42.3868 42.946 42.2848 43 42.1528 43H41.8648C41.6848 43 41.5588 42.97 41.4868 42.91C41.4268 42.838 41.3848 42.778 41.3608 42.73L38.7148 37.564L33.8728 42.73C33.8248 42.778 33.7588 42.838 33.6748 42.91C33.6028 42.97 33.4708 43 33.2788 43H32.9548ZM67.5931 43C67.4731 43 67.3831 42.964 67.3231 42.892C67.2631 42.82 67.2451 42.724 67.2691 42.604L69.7711 30.814C69.7951 30.682 69.8491 30.58 69.9331 30.508C70.0291 30.436 70.1371 30.4 70.2571 30.4H74.5411C75.2011 30.4 75.7771 30.478 76.2691 30.634C76.7611 30.79 77.1511 31.03 77.4391 31.354C77.7391 31.666 77.9371 32.056 78.0331 32.524C78.1291 32.98 78.1111 33.514 77.9791 34.126C77.7151 35.35 77.1631 36.28 76.3231 36.916C75.4951 37.54 74.4391 37.852 73.1551 37.852H69.4111L68.4031 42.604C68.3791 42.724 68.3251 42.82 68.2411 42.892C68.1571 42.964 68.0491 43 67.9171 43H67.5931ZM69.6451 36.772H73.0651C74.0491 36.772 74.8771 36.544 75.5491 36.088C76.2331 35.632 76.6651 34.978 76.8451 34.126C76.9651 33.55 76.9891 33.07 76.9171 32.686C76.8451 32.29 76.6111 31.99 76.2151 31.786C75.8311 31.582 75.2311 31.48 74.4151 31.48H70.7791L69.6451 36.772ZM101.413 43C101.293 43 101.203 42.964 101.143 42.892C101.083 42.82 101.065 42.724 101.089 42.604L103.591 30.814C103.615 30.682 103.669 30.58 103.753 30.508C103.849 30.436 103.957 30.4 104.077 30.4H111.097C111.229 30.4 111.319 30.436 111.367 30.508C111.427 30.58 111.445 30.682 111.421 30.814L111.367 31.084C111.343 31.204 111.289 31.3 111.205 31.372C111.121 31.444 111.013 31.48 110.881 31.48H104.599L103.609 36.07H109.495C109.627 36.07 109.717 36.106 109.765 36.178C109.825 36.25 109.843 36.352 109.819 36.484L109.765 36.754C109.741 36.874 109.687 36.97 109.603 37.042C109.519 37.114 109.411 37.15 109.279 37.15H103.393L102.367 41.92H108.793C108.925 41.92 109.015 41.956 109.063 42.028C109.123 42.1 109.141 42.202 109.117 42.334L109.063 42.604C109.039 42.724 108.985 42.82 108.901 42.892C108.817 42.964 108.709 43 108.577 43H101.413ZM134.782 43C134.662 43 134.572 42.964 134.512 42.892C134.464 42.82 134.452 42.724 134.476 42.604L136.978 30.814C137.002 30.682 137.056 30.58 137.14 30.508C137.236 30.436 137.344 30.4 137.464 30.4H141.658C142.918 30.4 143.86 30.7 144.484 31.3C145.108 31.9 145.288 32.812 145.024 34.036C144.82 34.996 144.418 35.764 143.818 36.34C143.218 36.916 142.468 37.306 141.568 37.51L143.422 42.442C143.434 42.478 143.44 42.514 143.44 42.55C143.44 42.574 143.434 42.604 143.422 42.64C143.41 42.736 143.356 42.82 143.26 42.892C143.176 42.964 143.086 43 142.99 43H142.774C142.582 43 142.45 42.952 142.378 42.856C142.306 42.748 142.246 42.634 142.198 42.514L140.362 37.672H136.654L135.61 42.604C135.586 42.724 135.526 42.82 135.43 42.892C135.346 42.964 135.238 43 135.106 43H134.782ZM136.888 36.592H140.254C141.298 36.592 142.12 36.382 142.72 35.962C143.32 35.53 143.71 34.888 143.89 34.036C144.07 33.184 143.95 32.548 143.53 32.128C143.11 31.696 142.378 31.48 141.334 31.48H137.968L136.888 36.592ZM170.98 43C170.86 43 170.77 42.964 170.71 42.892C170.65 42.82 170.632 42.724 170.656 42.604L173.032 31.48H169.468C169.348 31.48 169.258 31.444 169.198 31.372C169.138 31.3 169.12 31.204 169.144 31.084L169.198 30.814C169.222 30.682 169.276 30.58 169.36 30.508C169.456 30.436 169.564 30.4 169.684 30.4H177.928C178.06 30.4 178.15 30.436 178.198 30.508C178.258 30.58 178.276 30.682 178.252 30.814L178.198 31.084C178.174 31.204 178.12 31.3 178.036 31.372C177.952 31.444 177.844 31.48 177.712 31.48H174.166L171.79 42.604C171.766 42.724 171.712 42.82 171.628 42.892C171.544 42.964 171.436 43 171.304 43H170.98ZM204.132 43.18C203.16 43.18 202.362 43.03 201.738 42.73C201.126 42.43 200.682 42.034 200.406 41.542C200.13 41.038 200.028 40.504 200.1 39.94C200.112 39.844 200.148 39.76 200.208 39.688C200.28 39.616 200.37 39.58 200.478 39.58H200.91C201.03 39.58 201.114 39.616 201.162 39.688C201.21 39.76 201.234 39.844 201.234 39.94C201.21 40.276 201.288 40.612 201.468 40.948C201.66 41.272 201.972 41.548 202.404 41.776C202.836 41.992 203.412 42.1 204.132 42.1C205.308 42.1 206.226 41.89 206.886 41.47C207.558 41.038 207.972 40.462 208.128 39.742C208.236 39.262 208.176 38.878 207.948 38.59C207.732 38.29 207.36 38.026 206.832 37.798C206.304 37.558 205.62 37.294 204.78 37.006C203.988 36.73 203.352 36.436 202.872 36.124C202.404 35.8 202.086 35.416 201.918 34.972C201.762 34.528 201.75 33.976 201.882 33.316C202.086 32.404 202.584 31.66 203.376 31.084C204.168 30.508 205.23 30.22 206.562 30.22C207.27 30.22 207.87 30.316 208.362 30.508C208.866 30.7 209.268 30.958 209.568 31.282C209.868 31.594 210.072 31.936 210.18 32.308C210.288 32.668 210.312 33.022 210.252 33.37C210.24 33.454 210.204 33.538 210.144 33.622C210.096 33.694 210.006 33.73 209.874 33.73H209.442C209.382 33.73 209.31 33.706 209.226 33.658C209.142 33.61 209.106 33.514 209.118 33.37C209.178 32.77 208.962 32.278 208.47 31.894C207.99 31.498 207.354 31.3 206.562 31.3C205.674 31.3 204.894 31.474 204.222 31.822C203.55 32.17 203.13 32.716 202.962 33.46C202.866 33.94 202.908 34.336 203.088 34.648C203.28 34.948 203.616 35.218 204.096 35.458C204.588 35.686 205.236 35.938 206.04 36.214C206.88 36.502 207.558 36.802 208.074 37.114C208.59 37.426 208.944 37.804 209.136 38.248C209.34 38.68 209.37 39.226 209.226 39.886C208.998 40.978 208.44 41.8 207.552 42.352C206.664 42.904 205.524 43.18 204.132 43.18Z" fill="#161C2D"/>
</svg>
